<svg xmlns="http://www.w3.org/2000/svg" viewBox="0 0 60 32" fill="none">
  <path d="M6.5 7.5C3.5 7.5 1 10 1 13v6c0 3 2.5 5.5 5.5 5.5S12 22 12 19v-6c0-3-2.5-5.5-5.5-5.5zm0 14c-1.7 0-3-1.3-3-3v-6c0-1.7 1.3-3 3-3s3 1.3 3 3v6c0 1.7-1.3 3-3 3z" fill="#0061D5"/>
  <path d="M20.5 7.5c-1.5 0-2.8.6-3.8 1.5V3c0-.6-.4-1-1-1s-1 .4-1 1v16c0 3 2.5 5.5 5.5 5.5h.3c3 0 5.5-2.5 5.5-5.5v-6c0-3-2.5-5.5-5.5-5.5zm3 11.5c0 1.7-1.3 3-3 3h-.3c-1.7 0-3-1.3-3-3v-6c0-1.7 1.3-3 3-3h.3c1.7 0 3 1.3 3 3v6z" fill="#0061D5"/>
  <path d="M36.5 16l3.8-3.8c.4-.4.4-1 0-1.4s-1-.4-1.4 0L35 14.6l-3.8-3.8c-.4-.4-1-.4-1.4 0s-.4 1 0 1.4l3.8 3.8-3.8 3.8c-.4.4-.4 1 0 1.4.2.2.5.3.7.3s.5-.1.7-.3L35 17.4l3.8 3.8c.2.2.5.3.7.3s.5-.1.7-.3c.4-.4.4-1 0-1.4L36.5 16z" fill="#0061D5"/>
  <path d="M48 7.5c-3 0-5.5 2.5-5.5 5.5v6c0 3 2.5 5.5 5.5 5.5s5.5-2.5 5.5-5.5v-6c0-3-2.5-5.5-5.5-5.5zm3 11.5c0 1.7-1.3 3-3 3s-3-1.3-3-3v-6c0-1.7 1.3-3 3-3s3 1.3 3 3v6z" fill="#0061D5"/>
</svg>
